<svg width="3942" height="1000" viewBox="0 0 3942 1000" fill="none" xmlns="http://www.w3.org/2000/svg">
<rect width="1000" height="1000" rx="250" fill="#FF1D4E"/>
<g clip-path="url(#clip0_750_19)">
<path d="M734.794 713.272H614.316L648.588 637.227L581.344 637.305L522.153 500.931C518.082 490.366 514.195 480.818 510.494 472.285C507.163 463.752 504.201 455.625 501.61 447.905C500.943 445.587 500.276 443.269 499.609 440.95C498.656 443.675 497.658 446.399 496.613 449.124C494.022 456.844 491.061 464.971 487.73 473.504C484.399 481.63 480.513 490.773 476.071 500.931L421.798 637.492L353.515 637.572L391.68 713.272H266.206L450.532 287H551.578L734.794 713.272ZM614.316 713.272H391.68L421.798 637.492L581.344 637.305L614.316 713.272Z" fill="black"/>
</g>
<path d="M3798.81 675.942C3773.72 675.942 3751.27 670.495 3731.46 659.601C3711.99 648.376 3696.63 633.025 3685.41 613.547C3674.52 594.069 3669.07 571.62 3669.07 546.2C3669.07 520.78 3674.52 498.331 3685.41 478.853C3696.3 459.375 3711.49 444.189 3730.97 433.294C3750.45 422.07 3772.73 416.458 3797.82 416.458C3823.24 416.458 3845.69 422.07 3865.17 433.294C3884.65 444.189 3899.83 459.375 3910.73 478.853C3921.62 498.331 3927.07 520.78 3927.07 546.2C3927.07 571.62 3921.62 594.069 3910.73 613.547C3899.83 633.025 3884.65 648.376 3865.17 659.601C3846.02 670.495 3823.9 675.942 3798.81 675.942ZM3798.81 615.528C3811.03 615.528 3821.76 612.557 3831 606.614C3840.24 600.672 3847.34 592.584 3852.29 582.35C3857.57 571.785 3860.22 559.735 3860.22 546.2C3860.22 532.664 3857.57 520.78 3852.29 510.546C3847.01 499.981 3839.58 491.728 3830.01 485.786C3820.76 479.843 3810.04 476.872 3797.82 476.872C3785.94 476.872 3775.21 479.843 3765.63 485.786C3756.39 491.728 3749.13 499.981 3743.84 510.546C3738.56 520.78 3735.92 532.664 3735.92 546.2C3735.92 559.735 3738.56 571.785 3743.84 582.35C3749.13 592.584 3756.55 600.672 3766.13 606.614C3775.7 612.557 3786.6 615.528 3798.81 615.528Z" fill="white"/>
<path d="M3614.32 675.943C3586.92 675.943 3566.12 669.175 3551.93 655.639C3538.06 642.104 3531.13 622.791 3531.13 597.701V477.863H3491.02V422.4H3531.13V345.149H3596.49V422.4H3658.39V477.863H3596.49V583.34C3596.49 593.904 3598.81 601.993 3603.43 607.605C3608.05 612.887 3614.82 615.528 3623.73 615.528C3627.03 615.528 3630.66 614.868 3634.62 613.547C3638.59 611.897 3642.71 609.586 3647.01 606.615L3669.78 655.639C3661.86 661.582 3652.95 666.369 3643.04 670C3633.47 673.962 3623.9 675.943 3614.32 675.943Z" fill="white"/>
<path d="M3255.62 670V422.4H3317.02L3320 456.074C3327.92 443.198 3337.99 433.459 3350.2 426.857C3362.75 419.924 3376.94 416.458 3392.79 416.458C3412.27 416.458 3428.94 420.419 3442.8 428.342C3456.67 436.266 3467.23 448.646 3474.5 465.482C3481.76 481.989 3485.23 503.448 3484.9 529.858V670H3419.53V543.229C3419.53 526.392 3417.55 513.352 3413.59 504.108C3409.96 494.864 3404.67 488.262 3397.74 484.3C3390.81 480.008 3382.72 477.862 3373.48 477.862C3356.64 477.532 3343.6 482.649 3334.36 493.214C3325.44 503.778 3320.99 519.459 3320.99 540.258V670H3255.62Z" fill="white"/>
<path d="M3118.1 675.942C3093.67 675.942 3072.04 670.495 3053.23 659.601C3034.41 648.376 3019.55 633.025 3008.66 613.547C2998.09 594.069 2992.81 571.62 2992.81 546.2C2992.81 520.78 2998.26 498.331 3009.15 478.853C3020.38 459.375 3035.56 444.189 3054.71 433.294C3074.19 422.07 3096.47 416.458 3121.56 416.458C3143.35 416.458 3163.32 422.235 3181.48 433.79C3199.97 445.014 3214.66 461.686 3225.56 483.805C3236.78 505.594 3242.39 532.169 3242.39 563.532H3061.15C3062.8 580.039 3069.9 593.244 3082.44 603.148C3094.99 612.722 3109.18 617.509 3125.03 617.509C3138.57 617.509 3149.62 614.703 3158.21 609.09C3166.79 603.148 3173.39 595.555 3178.02 586.311L3236.45 609.09C3229.52 622.956 3220.44 635.006 3209.21 645.24C3198.32 655.144 3185.28 662.737 3170.09 668.019C3154.91 673.301 3137.57 675.942 3118.1 675.942ZM3064.62 515.002H3171.58C3170.59 504.768 3167.29 496.515 3161.67 490.242C3156.06 483.97 3149.46 479.348 3141.87 476.377C3134.27 473.406 3126.85 471.92 3119.58 471.92C3112.65 471.92 3105.06 473.406 3096.8 476.377C3088.88 479.018 3081.78 483.475 3075.51 489.747C3069.57 496.02 3065.94 504.438 3064.62 515.002Z" fill="white"/>
<path d="M2599.09 670V422.4H2660.5L2663.47 454.588C2671.06 442.043 2680.8 432.634 2692.69 426.362C2704.57 419.759 2717.78 416.458 2732.3 416.458C2752.44 416.458 2769.28 420.749 2782.81 429.333C2796.68 437.916 2806.75 451.122 2813.02 468.949C2820.28 452.112 2830.52 439.237 2843.72 430.323C2856.93 421.079 2872.28 416.458 2889.77 416.458C2918.83 416.458 2940.95 425.701 2956.13 444.189C2971.32 462.346 2978.91 490.407 2978.91 528.373V670H2913.54V543.229C2913.54 526.392 2911.73 513.352 2908.1 504.108C2904.47 494.864 2899.51 488.262 2893.24 484.3C2886.97 480.008 2879.54 477.862 2870.96 477.862C2855.11 477.532 2842.9 482.649 2834.31 493.214C2825.73 503.778 2821.44 519.459 2821.44 540.258V670H2756.07V543.229C2756.07 526.392 2754.25 513.352 2750.62 504.108C2747.32 494.864 2742.37 488.262 2735.77 484.3C2729.49 480.008 2722.07 477.862 2713.48 477.862C2697.64 477.532 2685.42 482.649 2676.84 493.214C2668.59 503.778 2664.46 519.459 2664.46 540.258V670H2599.09Z" fill="white"/>
<path d="M2440.03 675.942C2410.32 675.942 2387.21 669.34 2370.7 656.134C2354.53 642.929 2346.44 624.276 2346.44 600.177C2346.44 573.766 2355.19 553.958 2372.69 540.753C2390.51 527.217 2415.44 520.45 2447.46 520.45H2505.89C2503.58 505.263 2498.8 493.709 2491.53 485.786C2484.27 477.532 2473.87 473.406 2460.34 473.406C2449.77 473.406 2440.2 475.716 2431.61 480.338C2423.03 484.96 2415.77 492.058 2409.83 501.632L2352.38 481.824C2357 471.26 2363.77 461.026 2372.69 451.122C2381.6 440.887 2393.15 432.634 2407.35 426.362C2421.87 419.759 2439.54 416.458 2460.34 416.458C2485.43 416.458 2506.22 421.244 2522.73 430.818C2539.57 440.392 2551.95 453.928 2559.87 471.425C2568.12 488.592 2572.09 509.06 2571.76 532.83L2570.27 670H2509.36L2508.37 641.278C2502.1 652.503 2493.18 661.086 2481.63 667.029C2470.4 672.971 2456.54 675.942 2440.03 675.942ZM2450.93 621.47C2461.49 621.47 2471.06 618.994 2479.65 614.042C2488.23 609.09 2495 602.653 2499.95 594.73C2504.9 586.806 2507.38 578.553 2507.38 569.97V568.979H2470.24C2448.78 568.979 2433.92 571.62 2425.67 576.902C2417.42 581.854 2413.29 588.952 2413.29 598.196C2413.29 605.459 2416.59 611.236 2423.2 615.528C2429.8 619.49 2439.04 621.47 2450.93 621.47Z" fill="white"/>
<path d="M2262.7 670V323.36H2328.07V670H2262.7Z" fill="white"/>
<path d="M2116.1 675.942C2091.01 675.942 2068.56 670.495 2048.75 659.601C2029.27 648.376 2013.92 633.025 2002.7 613.547C1991.8 594.069 1986.36 571.62 1986.36 546.2C1986.36 520.78 1991.8 498.331 2002.7 478.853C2013.59 459.375 2028.78 444.189 2048.26 433.294C2067.73 422.07 2090.02 416.458 2115.11 416.458C2140.53 416.458 2162.98 422.07 2182.45 433.294C2201.93 444.189 2217.12 459.375 2228.01 478.853C2238.91 498.331 2244.35 520.78 2244.35 546.2C2244.35 571.62 2238.91 594.069 2228.01 613.547C2217.12 633.025 2201.93 648.376 2182.45 659.601C2163.31 670.495 2141.19 675.942 2116.1 675.942ZM2116.1 615.528C2128.31 615.528 2139.04 612.557 2148.29 606.614C2157.53 600.672 2164.63 592.584 2169.58 582.35C2174.86 571.785 2177.5 559.735 2177.5 546.2C2177.5 532.664 2174.86 520.78 2169.58 510.546C2164.3 499.981 2156.87 491.728 2147.3 485.786C2138.05 479.843 2127.32 476.872 2115.11 476.872C2103.22 476.872 2092.49 479.843 2082.92 485.786C2073.68 491.728 2066.41 499.981 2061.13 510.546C2055.85 520.78 2053.21 532.664 2053.21 546.2C2053.21 559.735 2055.85 571.785 2061.13 582.35C2066.41 592.584 2073.84 600.672 2083.41 606.614C2092.99 612.557 2103.88 615.528 2116.1 615.528Z" fill="white"/>
<path d="M1838.5 775.478C1819.68 775.478 1803.01 774.157 1788.48 771.516C1773.95 768.875 1761.74 765.408 1751.84 761.117C1741.93 756.825 1733.84 752.533 1727.57 748.242L1753.32 695.75C1757.94 698.391 1764.05 701.363 1771.64 704.664C1779.24 708.295 1788.32 711.267 1798.88 713.578C1809.44 716.219 1821.66 717.539 1835.52 717.539C1848.73 717.539 1860.28 714.898 1870.19 709.616C1880.42 704.664 1888.35 696.741 1893.96 685.846C1899.9 675.282 1902.87 661.747 1902.87 645.24V621.47C1894.62 634.346 1883.89 644.58 1870.68 652.173C1857.48 659.436 1842.46 663.067 1825.62 663.067C1802.84 663.067 1783.03 658.115 1766.2 648.211C1749.69 638.307 1736.81 624.442 1727.57 606.614C1718.33 588.787 1713.71 567.659 1713.71 543.229C1713.71 517.478 1718.33 495.194 1727.57 476.377C1736.81 457.229 1749.69 442.538 1766.2 432.304C1783.03 421.74 1802.84 416.458 1825.62 416.458C1842.46 416.458 1857.48 420.419 1870.68 428.342C1883.89 435.935 1894.62 446.83 1902.87 461.026V422.4H1968.24V643.259C1968.24 670.99 1962.96 694.76 1952.39 714.568C1941.83 734.706 1926.81 749.892 1907.33 760.126C1888.18 770.36 1865.24 775.478 1838.5 775.478ZM1844.44 608.1C1855.66 608.1 1865.4 605.294 1873.66 599.682C1882.24 593.739 1888.84 585.816 1893.46 575.912C1898.09 565.678 1900.4 554.123 1900.4 541.248C1900.4 528.043 1897.92 516.488 1892.97 506.584C1888.35 496.68 1881.74 488.922 1873.16 483.31C1864.91 477.697 1855.17 474.891 1843.94 474.891C1832.39 474.891 1822.15 477.697 1813.24 483.31C1804.33 488.922 1797.39 496.68 1792.44 506.584C1787.49 516.488 1784.85 528.043 1784.52 541.248C1784.85 554.123 1787.49 565.678 1792.44 575.912C1797.39 585.816 1804.33 593.739 1813.24 599.682C1822.48 605.294 1832.88 608.1 1844.44 608.1Z" fill="white"/>
<path d="M1589.55 675.942C1565.12 675.942 1543.5 670.495 1524.68 659.601C1505.86 648.376 1491.01 633.025 1480.11 613.547C1469.55 594.069 1464.27 571.62 1464.27 546.2C1464.27 520.78 1469.72 498.331 1480.61 478.853C1491.83 459.375 1507.02 444.189 1526.17 433.294C1545.65 422.07 1567.93 416.458 1593.02 416.458C1614.81 416.458 1634.78 422.235 1652.94 433.79C1671.43 445.014 1686.12 461.686 1697.01 483.805C1708.24 505.594 1713.85 532.169 1713.85 563.532H1532.61C1534.26 580.039 1541.35 593.244 1553.9 603.148C1566.44 612.722 1580.64 617.509 1596.49 617.509C1610.02 617.509 1621.08 614.703 1629.66 609.09C1638.25 603.148 1644.85 595.555 1649.47 586.311L1707.91 609.09C1700.97 622.956 1691.89 635.006 1680.67 645.24C1669.78 655.144 1656.74 662.737 1641.55 668.019C1626.36 673.301 1609.03 675.942 1589.55 675.942ZM1536.07 515.002H1643.04C1642.04 504.768 1638.74 496.515 1633.13 490.242C1627.52 483.97 1620.92 479.348 1613.32 476.377C1605.73 473.406 1598.3 471.92 1591.04 471.92C1584.11 471.92 1576.51 473.406 1568.26 476.377C1560.34 479.018 1553.24 483.475 1546.97 489.747C1541.02 496.02 1537.39 504.438 1536.07 515.002Z" fill="white"/>
<path d="M1192.64 670V323.36H1321.39C1345.82 323.36 1367.44 328.147 1386.26 337.721C1405.08 347.295 1419.77 360.5 1430.33 377.337C1440.9 393.843 1446.18 413.156 1446.18 435.275C1446.18 458.054 1440.07 478.192 1427.86 495.689C1415.64 512.856 1399.63 525.897 1379.82 534.81L1460.04 670H1383.29L1312.47 547.19C1310.49 547.19 1308.35 547.19 1306.04 547.19C1304.06 547.19 1301.91 547.19 1299.6 547.19H1260.48V670H1192.64ZM1260.48 485.29H1321.88C1332.12 485.29 1341.2 483.144 1349.12 478.853C1357.37 474.561 1363.81 468.619 1368.43 461.025C1373.38 453.432 1375.86 444.849 1375.86 435.275C1375.86 420.419 1370.41 408.369 1359.52 399.125C1348.95 389.882 1335.25 385.26 1318.42 385.26H1260.48V485.29Z" fill="white"/>
<defs>
<clipPath id="clip0_750_19">
<rect width="468.588" height="426.273" fill="white" transform="translate(266.206 287)"/>
</clipPath>
</defs>
</svg>
