<svg width="4872" height="1000" viewBox="0 0 4872 1000" fill="none" xmlns="http://www.w3.org/2000/svg">
<rect width="1000" height="1000" rx="250" fill="#FF1D4E"/>
<g clip-path="url(#clip0_750_19)">
<path d="M734.794 713.272H614.316L648.588 637.227L581.344 637.305L522.153 500.931C518.082 490.366 514.195 480.818 510.494 472.285C507.163 463.752 504.201 455.625 501.61 447.905C500.943 445.587 500.276 443.269 499.609 440.95C498.656 443.675 497.658 446.399 496.613 449.124C494.022 456.844 491.061 464.971 487.73 473.504C484.399 481.63 480.513 490.773 476.071 500.931L421.798 637.492L353.515 637.572L391.68 713.272H266.206L450.532 287H551.578L734.794 713.272ZM614.316 713.272H391.68L421.798 637.492L581.344 637.305L614.316 713.272Z" fill="black"/>
</g>
<path d="M4630.22 738.414C4597.03 738.414 4567.33 731.208 4541.13 716.797C4515.36 701.948 4495.05 681.641 4480.21 655.875C4465.79 630.108 4458.59 600.411 4458.59 566.784C4458.59 533.157 4465.79 503.46 4480.21 477.694C4494.62 451.928 4514.71 431.839 4540.47 417.427C4566.24 402.578 4595.72 395.154 4628.91 395.154C4662.53 395.154 4692.23 402.578 4718 417.427C4743.76 431.839 4763.85 451.928 4778.27 477.694C4792.68 503.46 4799.88 533.157 4799.88 566.784C4799.88 600.411 4792.68 630.108 4778.27 655.875C4763.85 681.641 4743.76 701.948 4718 716.797C4692.67 731.208 4663.41 738.414 4630.22 738.414ZM4630.22 658.495C4646.38 658.495 4660.57 654.564 4672.8 646.704C4685.03 638.843 4694.42 628.143 4700.97 614.605C4707.95 600.63 4711.45 584.69 4711.45 566.784C4711.45 548.879 4707.95 533.157 4700.97 519.619C4693.98 505.644 4684.15 494.726 4671.49 486.865C4659.26 479.004 4645.07 475.074 4628.91 475.074C4613.19 475.074 4598.99 479.004 4586.33 486.865C4574.1 494.726 4564.49 505.644 4557.5 519.619C4550.52 533.157 4547.02 548.879 4547.02 566.784C4547.02 584.69 4550.52 600.63 4557.5 614.605C4564.49 628.143 4574.32 638.843 4586.98 646.704C4599.65 654.564 4614.06 658.495 4630.22 658.495Z" fill="white"/>
<path d="M4386.17 738.415C4349.92 738.415 4322.41 729.462 4303.63 711.556C4285.28 693.651 4276.11 668.103 4276.11 634.913V476.384H4223.05V403.016H4276.11V300.824H4362.58V403.016H4444.47V476.384H4362.58V615.915C4362.58 629.89 4365.64 640.59 4371.75 648.014C4377.87 655.001 4386.82 658.495 4398.61 658.495C4402.98 658.495 4407.78 657.622 4413.02 655.875C4418.27 653.691 4423.72 650.634 4429.4 646.704L4459.54 711.556C4449.05 719.417 4437.26 725.75 4424.16 730.554C4411.5 735.794 4398.83 738.415 4386.17 738.415Z" fill="white"/>
<path d="M3911.66 730.553V403.015H3992.89L3996.82 447.56C4007.3 430.528 4020.62 417.645 4036.78 408.911C4053.37 399.74 4072.15 395.154 4093.11 395.154C4118.88 395.154 4140.93 400.395 4159.28 410.876C4177.62 421.357 4191.59 437.734 4201.2 460.007C4210.81 481.843 4215.39 510.229 4214.96 545.167V730.553H4128.49V562.854C4128.49 540.581 4125.87 523.331 4120.63 511.103C4115.82 498.875 4108.83 490.14 4099.66 484.9C4090.49 479.222 4079.79 476.384 4067.56 476.384C4045.29 475.947 4028.04 482.716 4015.81 496.691C4004.02 510.666 3998.13 531.41 3998.13 558.923V730.553H3911.66Z" fill="white"/>
<path d="M3729.73 738.414C3697.42 738.414 3668.81 731.208 3643.92 716.797C3619.03 701.948 3599.37 681.641 3584.96 655.875C3570.99 630.108 3564 600.411 3564 566.784C3564 533.157 3571.21 503.46 3585.62 477.694C3600.47 451.928 3620.55 431.839 3645.88 417.427C3671.65 402.578 3701.13 395.154 3734.32 395.154C3763.14 395.154 3789.56 402.797 3813.58 418.082C3838.04 432.93 3857.47 454.985 3871.89 484.245C3886.73 513.068 3894.16 548.224 3894.16 589.712H3654.4C3656.58 611.548 3665.97 629.016 3682.57 642.118C3699.16 654.783 3717.94 661.115 3738.91 661.115C3756.81 661.115 3771.44 657.403 3782.8 649.979C3794.15 642.118 3802.88 632.073 3809 619.845L3886.3 649.979C3877.13 668.321 3865.12 684.261 3850.27 697.799C3835.86 710.901 3818.61 720.945 3798.52 727.933C3778.43 734.92 3755.5 738.414 3729.73 738.414ZM3658.99 525.514H3800.48C3799.17 511.976 3794.81 501.058 3787.38 492.761C3779.96 484.463 3771.22 478.349 3761.18 474.418C3751.13 470.488 3741.31 468.523 3731.7 468.523C3722.53 468.523 3712.48 470.488 3701.57 474.418C3691.08 477.912 3681.7 483.808 3673.4 492.106C3665.54 500.403 3660.73 511.539 3658.99 525.514Z" fill="white"/>
<path d="M3043.17 730.553V403.015H3124.4L3128.33 445.595C3138.37 429 3151.26 416.553 3166.98 408.256C3182.7 399.521 3200.17 395.154 3219.38 395.154C3246.02 395.154 3268.3 400.832 3286.2 412.186C3304.54 423.541 3317.86 441.01 3326.16 464.592C3335.77 442.32 3349.31 425.288 3366.78 413.496C3384.25 401.268 3404.55 395.154 3427.7 395.154C3466.13 395.154 3495.39 407.382 3515.48 431.839C3535.57 455.858 3545.61 492.979 3545.61 543.201V730.553H3459.14V562.854C3459.14 540.581 3456.74 523.331 3451.94 511.103C3447.13 498.875 3440.58 490.14 3432.28 484.9C3423.99 479.222 3414.16 476.384 3402.81 476.384C3381.84 475.947 3365.68 482.716 3354.33 496.691C3342.98 510.666 3337.3 531.41 3337.3 558.923V730.553H3250.83V562.854C3250.83 540.581 3248.43 523.331 3243.62 511.103C3239.25 498.875 3232.7 490.14 3223.97 484.9C3215.67 479.222 3205.85 476.384 3194.49 476.384C3173.53 475.947 3157.37 482.716 3146.02 496.691C3135.1 510.666 3129.64 531.41 3129.64 558.923V730.553H3043.17Z" fill="white"/>
<path d="M2832.76 738.414C2793.45 738.414 2762.88 729.68 2741.05 712.211C2719.65 694.742 2708.95 670.068 2708.95 638.187C2708.95 603.25 2720.52 577.047 2743.67 559.578C2767.25 541.673 2800.22 532.72 2842.58 532.72H2919.88C2916.82 512.631 2910.49 497.346 2900.88 486.865C2891.28 475.947 2877.52 470.488 2859.61 470.488C2845.64 470.488 2832.97 473.545 2821.62 479.659C2810.27 485.773 2800.66 495.163 2792.8 507.827L2716.81 481.624C2722.92 467.649 2731.87 454.111 2743.67 441.01C2755.46 427.471 2770.74 416.553 2789.52 408.256C2808.74 399.521 2832.1 395.154 2859.61 395.154C2892.8 395.154 2920.32 401.487 2942.15 414.152C2964.43 426.816 2980.8 444.722 2991.28 467.868C3002.2 490.577 3007.44 517.654 3007.01 549.097L3005.04 730.553H2924.47L2923.16 692.559C2914.86 707.407 2903.07 718.762 2887.78 726.623C2872.93 734.484 2854.59 738.414 2832.76 738.414ZM2847.17 666.356C2861.14 666.356 2873.81 663.08 2885.16 656.53C2896.52 649.979 2905.47 641.463 2912.02 630.982C2918.57 620.5 2921.85 609.583 2921.85 598.228V596.918H2872.72C2844.33 596.918 2824.68 600.411 2813.76 607.399C2802.84 613.95 2797.38 623.339 2797.38 635.567C2797.38 645.175 2801.75 652.818 2810.48 658.495C2819.22 663.735 2831.45 666.356 2847.17 666.356Z" fill="white"/>
<path d="M2598.18 730.553V272H2684.65V730.553H2598.18Z" fill="white"/>
<path d="M2404.24 738.414C2371.05 738.414 2341.35 731.208 2315.15 716.797C2289.38 701.948 2269.08 681.641 2254.23 655.875C2239.82 630.108 2232.61 600.411 2232.61 566.784C2232.61 533.157 2239.82 503.46 2254.23 477.694C2268.64 451.928 2288.73 431.839 2314.49 417.427C2340.26 402.578 2369.74 395.154 2402.93 395.154C2436.56 395.154 2466.25 402.578 2492.02 417.427C2517.79 431.839 2537.87 451.928 2552.29 477.694C2566.7 503.46 2573.9 533.157 2573.9 566.784C2573.9 600.411 2566.7 630.108 2552.29 655.875C2537.87 681.641 2517.79 701.948 2492.02 716.797C2466.69 731.208 2437.43 738.414 2404.24 738.414ZM2404.24 658.495C2420.4 658.495 2434.59 654.564 2446.82 646.704C2459.05 638.843 2468.44 628.143 2474.99 614.605C2481.97 600.63 2485.47 584.69 2485.47 566.784C2485.47 548.879 2481.97 533.157 2474.99 519.619C2468 505.644 2458.17 494.726 2445.51 486.865C2433.28 479.004 2419.09 475.074 2402.93 475.074C2387.21 475.074 2373.01 479.004 2360.35 486.865C2348.12 494.726 2338.51 505.644 2331.53 519.619C2324.54 533.157 2321.04 548.879 2321.04 566.784C2321.04 584.69 2324.54 600.63 2331.53 614.605C2338.51 628.143 2348.34 638.843 2361 646.704C2373.67 654.564 2388.08 658.495 2404.24 658.495Z" fill="white"/>
<path d="M2037.01 870.084C2012.12 870.084 1990.07 868.338 1970.85 864.844C1951.63 861.35 1935.48 856.765 1922.37 851.087C1909.27 845.41 1898.57 839.733 1890.28 834.055L1924.34 764.617C1930.45 768.111 1938.53 772.041 1948.58 776.409C1958.62 781.212 1970.63 785.143 1984.61 788.2C1998.58 791.694 2014.74 793.44 2033.08 793.44C2050.55 793.44 2065.84 789.947 2078.94 782.959C2092.48 776.409 2102.96 765.927 2110.38 751.516C2118.24 737.541 2122.17 719.635 2122.17 697.799V666.356C2111.25 683.388 2097.06 696.926 2079.59 706.97C2062.12 716.578 2042.25 721.382 2019.98 721.382C1989.85 721.382 1963.64 714.831 1941.37 701.73C1919.54 688.628 1902.5 670.286 1890.28 646.704C1878.05 623.121 1871.93 595.171 1871.93 562.854C1871.93 528.79 1878.05 499.311 1890.28 474.418C1902.5 449.089 1919.54 429.655 1941.37 416.117C1963.64 402.142 1989.85 395.154 2019.98 395.154C2042.25 395.154 2062.12 400.395 2079.59 410.876C2097.06 420.921 2111.25 435.332 2122.17 454.111V403.015H2208.64V695.179C2208.64 731.863 2201.66 763.307 2187.68 789.51C2173.71 816.15 2153.83 836.239 2128.07 849.777C2102.74 863.315 2072.39 870.084 2037.01 870.084ZM2044.87 648.669C2059.72 648.669 2072.61 644.957 2083.52 637.532C2094.88 629.672 2103.61 619.19 2109.73 606.089C2115.84 592.551 2118.9 577.265 2118.9 560.233C2118.9 542.765 2115.62 527.48 2109.07 514.378C2102.96 501.277 2094.22 491.014 2082.87 483.59C2071.95 476.165 2059.07 472.453 2044.22 472.453C2028.93 472.453 2015.4 476.165 2003.6 483.59C1991.81 491.014 1982.64 501.277 1976.09 514.378C1969.54 527.48 1966.05 542.765 1965.61 560.233C1966.05 577.265 1969.54 592.551 1976.09 606.089C1982.64 619.19 1991.81 629.672 2003.6 637.532C2015.83 644.957 2029.59 648.669 2044.87 648.669Z" fill="white"/>
<path d="M1707.7 738.414C1675.38 738.414 1646.78 731.208 1621.88 716.797C1596.99 701.948 1577.34 681.641 1562.93 655.875C1548.95 630.108 1541.96 600.411 1541.96 566.784C1541.96 533.157 1549.17 503.46 1563.58 477.694C1578.43 451.928 1598.52 431.839 1623.85 417.427C1649.62 402.578 1679.09 395.154 1712.28 395.154C1741.11 395.154 1767.53 402.797 1791.55 418.082C1816.01 432.93 1835.44 454.985 1849.85 484.245C1864.7 513.068 1872.12 548.224 1872.12 589.712H1632.37C1634.55 611.548 1643.94 629.016 1660.53 642.118C1677.13 654.783 1695.91 661.115 1716.87 661.115C1734.78 661.115 1749.41 657.403 1760.76 649.979C1772.11 642.118 1780.85 632.073 1786.96 619.845L1864.26 649.979C1855.09 668.321 1843.08 684.261 1828.23 697.799C1813.82 710.901 1796.57 720.945 1776.48 727.933C1756.39 734.92 1733.47 738.414 1707.7 738.414ZM1636.95 525.514H1778.45C1777.14 511.976 1772.77 501.058 1765.35 492.761C1757.92 484.463 1749.19 478.349 1739.14 474.418C1729.1 470.488 1719.27 468.523 1709.66 468.523C1700.49 468.523 1690.45 470.488 1679.53 474.418C1669.05 477.912 1659.66 483.808 1651.36 492.106C1643.5 500.403 1638.7 511.539 1636.95 525.514Z" fill="white"/>
<path d="M1182.64 730.553V272H1352.96C1385.27 272 1413.88 278.333 1438.77 290.997C1463.66 303.662 1483.1 321.131 1497.07 343.403C1511.05 365.239 1518.03 390.787 1518.03 420.047C1518.03 450.181 1509.95 476.821 1493.8 499.967C1477.64 522.676 1456.46 539.926 1430.25 551.718L1536.38 730.553H1434.84L1341.16 568.095C1338.54 568.095 1335.7 568.095 1332.65 568.095C1330.03 568.095 1327.19 568.095 1324.13 568.095H1272.38V730.553H1182.64ZM1272.38 486.21H1353.61C1367.15 486.21 1379.16 483.371 1389.64 477.694C1400.56 472.017 1409.07 464.156 1415.19 454.111C1421.74 444.067 1425.01 432.712 1425.01 420.047C1425.01 400.395 1417.81 384.455 1403.4 372.227C1389.42 359.999 1371.3 353.885 1349.02 353.885H1272.38V486.21Z" fill="white"/>
<defs>
<clipPath id="clip0_750_19">
<rect width="468.588" height="426.273" fill="white" transform="translate(266.206 287)"/>
</clipPath>
</defs>
</svg>
