<svg width="4872" height="1000" viewBox="0 0 4872 1000" fill="none" xmlns="http://www.w3.org/2000/svg">
<rect width="1000" height="1000" rx="250" fill="#FF1D4E"/>
<g clip-path="url(#clip0_750_19)">
<path d="M734.794 713.272H614.316L648.588 637.227L581.344 637.305L522.153 500.931C518.082 490.366 514.195 480.818 510.494 472.285C507.163 463.752 504.201 455.625 501.61 447.905C500.943 445.587 500.276 443.269 499.609 440.95C498.656 443.675 497.658 446.399 496.613 449.124C494.022 456.844 491.061 464.971 487.73 473.504C484.399 481.63 480.513 490.773 476.071 500.931L421.798 637.492L353.515 637.572L391.68 713.272H266.206L450.532 287H551.578L734.794 713.272ZM614.316 713.272H391.68L421.798 637.492L581.344 637.305L614.316 713.272Z" fill="black"/>
</g>
<path d="M4690.22 738.414C4657.03 738.414 4627.33 731.208 4601.13 716.797C4575.36 701.948 4555.05 681.641 4540.21 655.875C4525.79 630.108 4518.59 600.411 4518.59 566.784C4518.59 533.157 4525.79 503.46 4540.21 477.694C4554.62 451.928 4574.71 431.839 4600.47 417.427C4626.24 402.578 4655.72 395.154 4688.91 395.154C4722.53 395.154 4752.23 402.578 4778 417.427C4803.76 431.839 4823.85 451.928 4838.27 477.694C4852.68 503.46 4859.88 533.157 4859.88 566.784C4859.88 600.411 4852.68 630.108 4838.27 655.875C4823.85 681.641 4803.76 701.948 4778 716.797C4752.67 731.208 4723.41 738.414 4690.22 738.414ZM4690.22 658.495C4706.38 658.495 4720.57 654.564 4732.8 646.704C4745.03 638.843 4754.42 628.143 4760.97 614.605C4767.95 600.63 4771.45 584.69 4771.45 566.784C4771.45 548.879 4767.95 533.157 4760.97 519.619C4753.98 505.644 4744.15 494.726 4731.49 486.865C4719.26 479.004 4705.07 475.074 4688.91 475.074C4673.19 475.074 4658.99 479.004 4646.33 486.865C4634.1 494.726 4624.49 505.644 4617.5 519.619C4610.52 533.157 4607.02 548.879 4607.02 566.784C4607.02 584.69 4610.52 600.63 4617.5 614.605C4624.49 628.143 4634.32 638.843 4646.98 646.704C4659.65 654.564 4674.06 658.495 4690.22 658.495Z" fill="white"/>
<path d="M4446.17 738.415C4409.92 738.415 4382.41 729.462 4363.63 711.556C4345.28 693.651 4336.11 668.103 4336.11 634.913V476.384H4283.05V403.016H4336.11V300.824H4422.58V403.016H4504.47V476.384H4422.58V615.915C4422.58 629.89 4425.64 640.59 4431.75 648.014C4437.87 655.001 4446.82 658.495 4458.61 658.495C4462.98 658.495 4467.78 657.622 4473.02 655.875C4478.27 653.691 4483.72 650.634 4489.4 646.704L4519.54 711.556C4509.05 719.417 4497.26 725.75 4484.16 730.554C4471.5 735.794 4458.83 738.415 4446.17 738.415Z" fill="white"/>
<path d="M3971.66 730.553V403.015H4052.89L4056.82 447.56C4067.3 430.528 4080.62 417.645 4096.78 408.911C4113.37 399.74 4132.15 395.154 4153.11 395.154C4178.88 395.154 4200.93 400.395 4219.28 410.876C4237.62 421.357 4251.59 437.734 4261.2 460.007C4270.81 481.843 4275.39 510.229 4274.96 545.167V730.553H4188.49V562.854C4188.49 540.581 4185.87 523.331 4180.63 511.103C4175.82 498.875 4168.83 490.14 4159.66 484.9C4150.49 479.222 4139.79 476.384 4127.56 476.384C4105.29 475.947 4088.04 482.716 4075.81 496.691C4064.02 510.666 4058.13 531.41 4058.13 558.923V730.553H3971.66Z" fill="white"/>
<path d="M3789.73 738.414C3757.42 738.414 3728.81 731.208 3703.92 716.797C3679.03 701.948 3659.37 681.641 3644.96 655.875C3630.99 630.108 3624 600.411 3624 566.784C3624 533.157 3631.21 503.46 3645.62 477.694C3660.47 451.928 3680.55 431.839 3705.88 417.427C3731.65 402.578 3761.13 395.154 3794.32 395.154C3823.14 395.154 3849.56 402.797 3873.58 418.082C3898.04 432.93 3917.47 454.985 3931.89 484.245C3946.73 513.068 3954.16 548.224 3954.16 589.712H3714.4C3716.58 611.548 3725.97 629.016 3742.57 642.118C3759.16 654.783 3777.94 661.115 3798.91 661.115C3816.81 661.115 3831.44 657.403 3842.8 649.979C3854.15 642.118 3862.88 632.073 3869 619.845L3946.3 649.979C3937.13 668.321 3925.12 684.261 3910.27 697.799C3895.86 710.901 3878.61 720.945 3858.52 727.933C3838.43 734.92 3815.5 738.414 3789.73 738.414ZM3718.99 525.514H3860.48C3859.17 511.976 3854.81 501.058 3847.38 492.761C3839.96 484.463 3831.22 478.349 3821.18 474.418C3811.13 470.488 3801.31 468.523 3791.7 468.523C3782.53 468.523 3772.48 470.488 3761.57 474.418C3751.08 477.912 3741.7 483.808 3733.4 492.106C3725.54 500.403 3720.73 511.539 3718.99 525.514Z" fill="white"/>
<path d="M3103.17 730.553V403.015H3184.4L3188.33 445.595C3198.37 429 3211.26 416.553 3226.98 408.256C3242.7 399.521 3260.17 395.154 3279.38 395.154C3306.02 395.154 3328.3 400.832 3346.2 412.186C3364.54 423.541 3377.86 441.01 3386.16 464.592C3395.77 442.32 3409.31 425.288 3426.78 413.496C3444.25 401.268 3464.55 395.154 3487.7 395.154C3526.13 395.154 3555.39 407.382 3575.48 431.839C3595.57 455.858 3605.61 492.979 3605.61 543.201V730.553H3519.14V562.854C3519.14 540.581 3516.74 523.331 3511.94 511.103C3507.13 498.875 3500.58 490.14 3492.28 484.9C3483.99 479.222 3474.16 476.384 3462.81 476.384C3441.84 475.947 3425.68 482.716 3414.33 496.691C3402.98 510.666 3397.3 531.41 3397.3 558.923V730.553H3310.83V562.854C3310.83 540.581 3308.43 523.331 3303.62 511.103C3299.25 498.875 3292.7 490.14 3283.97 484.9C3275.67 479.222 3265.85 476.384 3254.49 476.384C3233.53 475.947 3217.37 482.716 3206.02 496.691C3195.1 510.666 3189.64 531.41 3189.64 558.923V730.553H3103.17Z" fill="white"/>
<path d="M2892.76 738.414C2853.45 738.414 2822.88 729.68 2801.05 712.211C2779.65 694.742 2768.95 670.068 2768.95 638.187C2768.95 603.25 2780.52 577.047 2803.67 559.578C2827.25 541.673 2860.22 532.72 2902.58 532.72H2979.88C2976.82 512.631 2970.49 497.346 2960.88 486.865C2951.28 475.947 2937.52 470.488 2919.61 470.488C2905.64 470.488 2892.97 473.545 2881.62 479.659C2870.27 485.773 2860.66 495.163 2852.8 507.827L2776.81 481.624C2782.92 467.649 2791.87 454.111 2803.67 441.01C2815.46 427.471 2830.74 416.553 2849.52 408.256C2868.74 399.521 2892.1 395.154 2919.61 395.154C2952.8 395.154 2980.32 401.487 3002.15 414.152C3024.43 426.816 3040.8 444.722 3051.28 467.868C3062.2 490.577 3067.44 517.654 3067.01 549.097L3065.04 730.553H2984.47L2983.16 692.559C2974.86 707.407 2963.07 718.762 2947.78 726.623C2932.93 734.484 2914.59 738.414 2892.76 738.414ZM2907.17 666.356C2921.14 666.356 2933.81 663.08 2945.16 656.53C2956.52 649.979 2965.47 641.463 2972.02 630.982C2978.57 620.5 2981.85 609.583 2981.85 598.228V596.918H2932.72C2904.33 596.918 2884.68 600.411 2873.76 607.399C2862.84 613.95 2857.38 623.339 2857.38 635.567C2857.38 645.175 2861.75 652.818 2870.48 658.495C2879.22 663.735 2891.45 666.356 2907.17 666.356Z" fill="white"/>
<path d="M2658.18 730.553V272H2744.65V730.553H2658.18Z" fill="white"/>
<path d="M2464.24 738.414C2431.05 738.414 2401.35 731.208 2375.15 716.797C2349.38 701.948 2329.08 681.641 2314.23 655.875C2299.82 630.108 2292.61 600.411 2292.61 566.784C2292.61 533.157 2299.82 503.46 2314.23 477.694C2328.64 451.928 2348.73 431.839 2374.49 417.427C2400.26 402.578 2429.74 395.154 2462.93 395.154C2496.56 395.154 2526.25 402.578 2552.02 417.427C2577.79 431.839 2597.87 451.928 2612.29 477.694C2626.7 503.46 2633.9 533.157 2633.9 566.784C2633.9 600.411 2626.7 630.108 2612.29 655.875C2597.87 681.641 2577.79 701.948 2552.02 716.797C2526.69 731.208 2497.43 738.414 2464.24 738.414ZM2464.24 658.495C2480.4 658.495 2494.59 654.564 2506.82 646.704C2519.05 638.843 2528.44 628.143 2534.99 614.605C2541.97 600.63 2545.47 584.69 2545.47 566.784C2545.47 548.879 2541.97 533.157 2534.99 519.619C2528 505.644 2518.17 494.726 2505.51 486.865C2493.28 479.004 2479.09 475.074 2462.93 475.074C2447.21 475.074 2433.01 479.004 2420.35 486.865C2408.12 494.726 2398.51 505.644 2391.53 519.619C2384.54 533.157 2381.04 548.879 2381.04 566.784C2381.04 584.69 2384.54 600.63 2391.53 614.605C2398.51 628.143 2408.34 638.843 2421 646.704C2433.67 654.564 2448.08 658.495 2464.24 658.495Z" fill="white"/>
<path d="M2097.01 870.084C2072.12 870.084 2050.07 868.338 2030.85 864.844C2011.63 861.35 1995.48 856.765 1982.37 851.087C1969.27 845.41 1958.57 839.733 1950.28 834.055L1984.34 764.617C1990.45 768.111 1998.53 772.041 2008.58 776.409C2018.62 781.212 2030.63 785.143 2044.61 788.2C2058.58 791.694 2074.74 793.44 2093.08 793.44C2110.55 793.44 2125.84 789.947 2138.94 782.959C2152.48 776.409 2162.96 765.927 2170.38 751.516C2178.24 737.541 2182.17 719.635 2182.17 697.799V666.356C2171.25 683.388 2157.06 696.926 2139.59 706.97C2122.12 716.578 2102.25 721.382 2079.98 721.382C2049.85 721.382 2023.64 714.831 2001.37 701.73C1979.54 688.628 1962.5 670.286 1950.28 646.704C1938.05 623.121 1931.93 595.171 1931.93 562.854C1931.93 528.79 1938.05 499.311 1950.28 474.418C1962.5 449.089 1979.54 429.655 2001.37 416.117C2023.64 402.142 2049.85 395.154 2079.98 395.154C2102.25 395.154 2122.12 400.395 2139.59 410.876C2157.06 420.921 2171.25 435.332 2182.17 454.111V403.015H2268.64V695.179C2268.64 731.863 2261.66 763.307 2247.68 789.51C2233.71 816.15 2213.83 836.239 2188.07 849.777C2162.74 863.315 2132.39 870.084 2097.01 870.084ZM2104.87 648.669C2119.72 648.669 2132.61 644.957 2143.52 637.532C2154.88 629.672 2163.61 619.19 2169.73 606.089C2175.84 592.551 2178.9 577.265 2178.9 560.233C2178.9 542.765 2175.62 527.48 2169.07 514.378C2162.96 501.277 2154.22 491.014 2142.87 483.59C2131.95 476.165 2119.07 472.453 2104.22 472.453C2088.93 472.453 2075.4 476.165 2063.6 483.59C2051.81 491.014 2042.64 501.277 2036.09 514.378C2029.54 527.48 2026.05 542.765 2025.61 560.233C2026.05 577.265 2029.54 592.551 2036.09 606.089C2042.64 619.19 2051.81 629.672 2063.6 637.532C2075.83 644.957 2089.59 648.669 2104.87 648.669Z" fill="white"/>
<path d="M1767.7 738.414C1735.38 738.414 1706.78 731.208 1681.88 716.797C1656.99 701.948 1637.34 681.641 1622.93 655.875C1608.95 630.108 1601.96 600.411 1601.96 566.784C1601.96 533.157 1609.17 503.46 1623.58 477.694C1638.43 451.928 1658.52 431.839 1683.85 417.427C1709.62 402.578 1739.09 395.154 1772.28 395.154C1801.11 395.154 1827.53 402.797 1851.55 418.082C1876.01 432.93 1895.44 454.985 1909.85 484.245C1924.7 513.068 1932.12 548.224 1932.12 589.712H1692.37C1694.55 611.548 1703.94 629.016 1720.53 642.118C1737.13 654.783 1755.91 661.115 1776.87 661.115C1794.78 661.115 1809.41 657.403 1820.76 649.979C1832.11 642.118 1840.85 632.073 1846.96 619.845L1924.26 649.979C1915.09 668.321 1903.08 684.261 1888.23 697.799C1873.82 710.901 1856.57 720.945 1836.48 727.933C1816.39 734.92 1793.47 738.414 1767.7 738.414ZM1696.95 525.514H1838.45C1837.14 511.976 1832.77 501.058 1825.35 492.761C1817.92 484.463 1809.19 478.349 1799.14 474.418C1789.1 470.488 1779.27 468.523 1769.66 468.523C1760.49 468.523 1750.45 470.488 1739.53 474.418C1729.05 477.912 1719.66 483.808 1711.36 492.106C1703.5 500.403 1698.7 511.539 1696.95 525.514Z" fill="white"/>
<path d="M1242.64 730.553V272H1412.96C1445.27 272 1473.88 278.333 1498.77 290.997C1523.66 303.662 1543.1 321.131 1557.07 343.403C1571.05 365.239 1578.03 390.787 1578.03 420.047C1578.03 450.181 1569.95 476.821 1553.8 499.967C1537.64 522.676 1516.46 539.926 1490.25 551.718L1596.38 730.553H1494.84L1401.16 568.095C1398.54 568.095 1395.7 568.095 1392.65 568.095C1390.03 568.095 1387.19 568.095 1384.13 568.095H1332.38V730.553H1242.64ZM1332.38 486.21H1413.61C1427.15 486.21 1439.16 483.371 1449.64 477.694C1460.56 472.017 1469.07 464.156 1475.19 454.111C1481.74 444.067 1485.01 432.712 1485.01 420.047C1485.01 400.395 1477.81 384.455 1463.4 372.227C1449.42 359.999 1431.3 353.885 1409.02 353.885H1332.38V486.21Z" fill="white"/>
<defs>
<clipPath id="clip0_750_19">
<rect width="468.588" height="426.273" fill="white" transform="translate(266.206 287)"/>
</clipPath>
</defs>
</svg>
